# xmcd
#
# Track frame offsets:
#	150
#	13367
#	25570
#	45322
#	58315
#	71430
#	89313
#	106556
#	119527
#	135070
#
# Disc length: 2083 seconds
#
# Revision: 1
# Processed by: cddbd v1.5.2PL0 Copyright (c) Steve Scherf et al.
# Submitted via: audiograbber 1.83.01
#
DISCID=7508210a
DTITLE=Little Miss Jane - Sticks and Stones
DYEAR=2010
DGENRE=Power Blues
TTITLE0=Littje Miss Jane
TTITLE1=God Knows
TTITLE2=Bullet In A Red Sky
TTITLE3=Time Travveling Man
TTITLE4=Selfmade Man
TTITLE5=Show Me The Money
TTITLE6=Brotherman
TTITLE7=Jesus Spoke
TTITLE8=Stay Tuned
TTITLE9=Another Revolution
EXTD=
EXTT0=
EXTT1=
EXTT2=
EXTT3=
EXTT4=
EXTT5=
EXTT6=
EXTT7=
EXTT8=
EXTT9=
PLAYORDER=
